<svg width="208" height="350" viewBox="0 0 208 350" fill="none" xmlns="http://www.w3.org/2000/svg">
    <rect width="208" height="350" rx="20" fill="#7FC4ED"/>
    <path d="M92.48 37.296C91.728 36.896 91.352 36.268 91.352 35.412C91.352 34.98 91.464 34.588 91.688 34.236C91.912 33.876 92.252 33.592 92.708 33.384C93.164 33.168 93.724 33.06 94.388 33.06C95.052 33.06 95.608 33.168 96.056 33.384C96.512 33.592 96.852 33.876 97.076 34.236C97.3 34.588 97.412 34.98 97.412 35.412C97.412 35.844 97.308 36.22 97.1 36.54C96.9 36.86 96.628 37.112 96.284 37.296C96.716 37.504 97.048 37.792 97.28 38.16C97.512 38.52 97.628 38.944 97.628 39.432C97.628 40 97.484 40.492 97.196 40.908C96.908 41.316 96.516 41.628 96.02 41.844C95.532 42.06 94.988 42.168 94.388 42.168C93.788 42.168 93.24 42.06 92.744 41.844C92.256 41.628 91.868 41.316 91.58 40.908C91.292 40.492 91.148 40 91.148 39.432C91.148 38.936 91.264 38.508 91.496 38.148C91.728 37.78 92.056 37.496 92.48 37.296ZM95.42 35.724C95.42 35.396 95.324 35.144 95.132 34.968C94.948 34.784 94.7 34.692 94.388 34.692C94.076 34.692 93.824 34.784 93.632 34.968C93.448 35.152 93.356 35.408 93.356 35.736C93.356 36.048 93.452 36.296 93.644 36.48C93.836 36.656 94.084 36.744 94.388 36.744C94.692 36.744 94.94 36.652 95.132 36.468C95.324 36.284 95.42 36.036 95.42 35.724ZM94.388 38.184C94.012 38.184 93.708 38.288 93.476 38.496C93.244 38.696 93.128 38.976 93.128 39.336C93.128 39.672 93.24 39.948 93.464 40.164C93.696 40.38 94.004 40.488 94.388 40.488C94.772 40.488 95.072 40.38 95.288 40.164C95.512 39.948 95.624 39.672 95.624 39.336C95.624 38.984 95.508 38.704 95.276 38.496C95.052 38.288 94.756 38.184 94.388 38.184ZM99.1812 37.5C99.1812 36.124 99.4452 35.04 99.9732 34.248C100.509 33.456 101.369 33.06 102.553 33.06C103.737 33.06 104.593 33.456 105.121 34.248C105.657 35.04 105.925 36.124 105.925 37.5C105.925 38.892 105.657 39.984 105.121 40.776C104.593 41.568 103.737 41.964 102.553 41.964C101.369 41.964 100.509 41.568 99.9732 40.776C99.4452 39.984 99.1812 38.892 99.1812 37.5ZM103.909 37.5C103.909 36.692 103.821 36.072 103.645 35.64C103.469 35.2 103.105 34.98 102.553 34.98C102.001 34.98 101.637 35.2 101.461 35.64C101.285 36.072 101.197 36.692 101.197 37.5C101.197 38.044 101.229 38.496 101.293 38.856C101.357 39.208 101.485 39.496 101.677 39.72C101.877 39.936 102.169 40.044 102.553 40.044C102.937 40.044 103.225 39.936 103.417 39.72C103.617 39.496 103.749 39.208 103.813 38.856C103.877 38.496 103.909 38.044 103.909 37.5ZM107.201 35.448C107.201 34.8 107.385 34.3 107.753 33.948C108.129 33.596 108.613 33.42 109.205 33.42C109.797 33.42 110.277 33.596 110.645 33.948C111.013 34.3 111.197 34.8 111.197 35.448C111.197 36.096 111.013 36.596 110.645 36.948C110.277 37.3 109.797 37.476 109.205 37.476C108.613 37.476 108.129 37.3 107.753 36.948C107.385 36.596 107.201 36.096 107.201 35.448ZM115.349 33.552L110.729 42H108.749L113.369 33.552H115.349ZM109.193 34.62C108.809 34.62 108.617 34.896 108.617 35.448C108.617 35.992 108.809 36.264 109.193 36.264C109.377 36.264 109.521 36.196 109.625 36.06C109.729 35.924 109.781 35.72 109.781 35.448C109.781 34.896 109.585 34.62 109.193 34.62ZM112.913 40.104C112.913 39.456 113.097 38.956 113.465 38.604C113.833 38.252 114.313 38.076 114.905 38.076C115.497 38.076 115.977 38.252 116.345 38.604C116.713 38.956 116.897 39.456 116.897 40.104C116.897 40.752 116.713 41.252 116.345 41.604C115.977 41.956 115.497 42.132 114.905 42.132C114.313 42.132 113.833 41.956 113.465 41.604C113.097 41.252 112.913 40.752 112.913 40.104ZM114.893 39.276C114.709 39.276 114.565 39.344 114.461 39.48C114.365 39.616 114.317 39.824 114.317 40.104C114.317 40.648 114.509 40.92 114.893 40.92C115.077 40.92 115.221 40.852 115.325 40.716C115.429 40.58 115.481 40.376 115.481 40.104C115.481 39.832 115.429 39.628 115.325 39.492C115.221 39.348 115.077 39.276 114.893 39.276Z" fill="#1F2128"/>
    <path d="M63.2905 98.7022L72.2066 220.572H135.628L145.314 98.6137L63.2905 98.7022Z" fill="#C6E7FF"/>
    <path d="M134.975 217.989L72.6107 218.684L68.1062 150.93H139.992L134.975 217.989Z" fill="#55ACEE"/>
    <path d="M130.133 235.219H77.8668C70.2914 235.219 64.9727 230.118 63.9948 221.896L55.2557 99.2569C55.0522 96.394 57.2071 93.9072 60.0744 93.7037C62.9904 93.5046 65.4241 95.6595 65.6276 98.5179L74.3401 220.909C74.8136 224.821 76.8756 224.821 77.8668 224.821H130.133C132.416 224.821 133.266 224.821 133.673 220.763L142.372 98.5179C142.576 95.6595 145.027 93.5134 147.926 93.7037C150.788 93.9072 152.948 96.394 152.744 99.2569L144.032 221.644C142.917 232.888 135.859 235.219 130.133 235.219Z" fill="#2B5677"/>
    <path d="M103.998 225.595H92.3742C67.8959 225.595 65.0861 213.719 63.7896 196.949C62.3383 178.227 56.0328 99.186 56.0328 99.186L64.8516 98.4825C64.8516 98.4825 71.1658 177.546 72.6128 196.267C73.7854 211.484 75.073 216.746 92.3742 216.746H103.998C106.441 216.746 108.423 218.724 108.423 221.17C108.423 223.617 106.441 225.595 103.998 225.595Z" fill="#2B5677"/>
    <path d="M115.622 225.595H103.998C101.555 225.595 99.573 223.617 99.573 221.17C99.573 218.724 101.555 216.746 103.998 216.746H115.622C132.923 216.746 134.206 211.484 135.383 196.267C136.835 177.541 143.145 98.4825 143.145 98.4825L151.968 99.186C151.968 99.186 145.658 178.232 144.207 196.949C142.91 213.719 140.105 225.595 115.622 225.595Z" fill="#2B5677"/>
    <path d="M152.671 97.6418C152.671 105.177 140.592 111.284 103.998 111.284C67.4089 111.284 55.3246 105.177 55.3246 97.6418C55.3246 90.1063 67.4044 84 103.998 84C140.592 84 152.671 90.1063 152.671 97.6418Z" fill="#55ACEE"/>
    <path d="M150.602 97.8409C149.244 95.8099 146.501 95.2612 144.465 96.6196C135.235 102.783 112.279 103.571 104.212 103.359C104.168 103.354 104.128 103.381 104.084 103.376C104.044 103.376 104.013 103.359 103.973 103.359C95.9244 103.575 72.9639 102.797 63.7203 96.6196C61.6849 95.2656 58.9415 95.8099 57.5831 97.8409C56.2246 99.8719 56.7733 102.62 58.8043 103.978C70.1762 111.576 93.8359 112.235 101.672 112.235C102.951 112.235 103.783 112.217 104.093 112.208C104.407 112.217 105.234 112.235 106.513 112.235C114.35 112.235 138.009 111.58 149.381 103.978C151.417 102.62 151.965 99.8719 150.602 97.8409Z" fill="#88C9F9"/>
    <path d="M103.958 157.116C123.085 157.116 138.591 154.216 138.591 150.638C138.591 147.061 123.085 144.16 103.958 144.16C84.8303 144.16 69.3245 147.061 69.3245 150.638C69.3245 154.216 84.8303 157.116 103.958 157.116Z" fill="#88C9F9"/>
    <path d="M73.2092 219.144H135.896V227.255H73.2092V219.144Z" fill="#2B5677"/>
    <path d="M54.384 277.059C55.1707 277.206 55.8173 277.599 56.324 278.239C56.8307 278.879 57.084 279.613 57.084 280.439C57.084 281.186 56.8973 281.846 56.524 282.419C56.164 282.979 55.6373 283.419 54.944 283.739C54.2507 284.059 53.4307 284.219 52.484 284.219H46.464V270.259H52.224C53.1707 270.259 53.984 270.413 54.664 270.719C55.3573 271.026 55.8773 271.453 56.224 271.999C56.584 272.546 56.764 273.166 56.764 273.859C56.764 274.673 56.544 275.353 56.104 275.899C55.6773 276.446 55.104 276.833 54.384 277.059ZM49.264 276.019H51.824C52.4907 276.019 53.004 275.873 53.364 275.579C53.724 275.273 53.904 274.839 53.904 274.279C53.904 273.719 53.724 273.286 53.364 272.979C53.004 272.673 52.4907 272.519 51.824 272.519H49.264V276.019ZM52.084 281.939C52.764 281.939 53.2907 281.779 53.664 281.459C54.0507 281.139 54.244 280.686 54.244 280.099C54.244 279.499 54.044 279.033 53.644 278.699C53.244 278.353 52.704 278.179 52.024 278.179H49.264V281.939H52.084ZM69.6155 278.439C69.6155 278.839 69.5889 279.199 69.5355 279.519H61.4355C61.5022 280.319 61.7822 280.946 62.2755 281.399C62.7689 281.853 63.3755 282.079 64.0955 282.079C65.1355 282.079 65.8755 281.633 66.3155 280.739H69.3355C69.0155 281.806 68.4022 282.686 67.4955 283.379C66.5889 284.059 65.4755 284.399 64.1555 284.399C63.0889 284.399 62.1289 284.166 61.2755 283.699C60.4355 283.219 59.7755 282.546 59.2955 281.679C58.8289 280.813 58.5955 279.813 58.5955 278.679C58.5955 277.533 58.8289 276.526 59.2955 275.659C59.7622 274.793 60.4155 274.126 61.2555 273.659C62.0955 273.193 63.0622 272.959 64.1555 272.959C65.2089 272.959 66.1489 273.186 66.9755 273.639C67.8155 274.093 68.4622 274.739 68.9155 275.579C69.3822 276.406 69.6155 277.359 69.6155 278.439ZM66.7155 277.639C66.7022 276.919 66.4422 276.346 65.9355 275.919C65.4289 275.479 64.8089 275.259 64.0755 275.259C63.3822 275.259 62.7955 275.473 62.3155 275.899C61.8489 276.313 61.5622 276.893 61.4555 277.639H66.7155ZM74.4593 274.759C74.8193 274.226 75.3126 273.793 75.9393 273.459C76.5793 273.126 77.306 272.959 78.1193 272.959C79.066 272.959 79.9193 273.193 80.6793 273.659C81.4526 274.126 82.0593 274.793 82.4993 275.659C82.9526 276.513 83.1793 277.506 83.1793 278.639C83.1793 279.773 82.9526 280.779 82.4993 281.659C82.0593 282.526 81.4526 283.199 80.6793 283.679C79.9193 284.159 79.066 284.399 78.1193 284.399C77.2926 284.399 76.566 284.239 75.9393 283.919C75.326 283.586 74.8326 283.159 74.4593 282.639V284.219H71.6593V269.419H74.4593V274.759ZM80.3193 278.639C80.3193 277.973 80.1793 277.399 79.8993 276.919C79.6326 276.426 79.2726 276.053 78.8193 275.799C78.3793 275.546 77.8993 275.419 77.3793 275.419C76.8726 275.419 76.3926 275.553 75.9393 275.819C75.4993 276.073 75.1393 276.446 74.8593 276.939C74.5926 277.433 74.4593 278.013 74.4593 278.679C74.4593 279.346 74.5926 279.926 74.8593 280.419C75.1393 280.913 75.4993 281.293 75.9393 281.559C76.3926 281.813 76.8726 281.939 77.3793 281.939C77.8993 281.939 78.3793 281.806 78.8193 281.539C79.2726 281.273 79.6326 280.893 79.8993 280.399C80.1793 279.906 80.3193 279.319 80.3193 278.639ZM95.514 278.439C95.514 278.839 95.4873 279.199 95.434 279.519H87.334C87.4007 280.319 87.6807 280.946 88.174 281.399C88.6673 281.853 89.274 282.079 89.994 282.079C91.034 282.079 91.774 281.633 92.214 280.739H95.234C94.914 281.806 94.3007 282.686 93.394 283.379C92.4873 284.059 91.374 284.399 90.054 284.399C88.9873 284.399 88.0273 284.166 87.174 283.699C86.334 283.219 85.674 282.546 85.194 281.679C84.7273 280.813 84.494 279.813 84.494 278.679C84.494 277.533 84.7273 276.526 85.194 275.659C85.6607 274.793 86.314 274.126 87.154 273.659C87.994 273.193 88.9607 272.959 90.054 272.959C91.1073 272.959 92.0473 273.186 92.874 273.639C93.714 274.093 94.3607 274.739 94.814 275.579C95.2807 276.406 95.514 277.359 95.514 278.439ZM92.614 277.639C92.6007 276.919 92.3407 276.346 91.834 275.919C91.3273 275.479 90.7073 275.259 89.974 275.259C89.2807 275.259 88.694 275.473 88.214 275.899C87.7473 276.313 87.4607 276.893 87.354 277.639H92.614ZM100.358 274.859C100.718 274.273 101.184 273.813 101.758 273.479C102.344 273.146 103.011 272.979 103.758 272.979V275.919H103.018C102.138 275.919 101.471 276.126 101.018 276.539C100.578 276.953 100.358 277.673 100.358 278.699V284.219H97.5577V273.139H100.358V274.859ZM109.689 278.639C109.689 277.519 109.909 276.526 110.349 275.659C110.803 274.793 111.409 274.126 112.169 273.659C112.943 273.193 113.803 272.959 114.749 272.959C115.576 272.959 116.296 273.126 116.909 273.459C117.536 273.793 118.036 274.213 118.409 274.719V273.139H121.229V284.219H118.409V282.599C118.049 283.119 117.549 283.553 116.909 283.899C116.283 284.233 115.556 284.399 114.729 284.399C113.796 284.399 112.943 284.159 112.169 283.679C111.409 283.199 110.803 282.526 110.349 281.659C109.909 280.779 109.689 279.773 109.689 278.639ZM118.409 278.679C118.409 277.999 118.276 277.419 118.009 276.939C117.743 276.446 117.383 276.073 116.929 275.819C116.476 275.553 115.989 275.419 115.469 275.419C114.949 275.419 114.469 275.546 114.029 275.799C113.589 276.053 113.229 276.426 112.949 276.919C112.683 277.399 112.549 277.973 112.549 278.639C112.549 279.306 112.683 279.893 112.949 280.399C113.229 280.893 113.589 281.273 114.029 281.539C114.483 281.806 114.963 281.939 115.469 281.939C115.989 281.939 116.476 281.813 116.929 281.559C117.383 281.293 117.743 280.919 118.009 280.439C118.276 279.946 118.409 279.359 118.409 278.679ZM118.029 270.259L113.429 272.359V270.359L118.029 267.979V270.259ZM128.304 272.959C129.131 272.959 129.857 273.126 130.484 273.459C131.111 273.779 131.604 274.199 131.964 274.719V273.139H134.784V284.299C134.784 285.326 134.577 286.239 134.164 287.039C133.751 287.853 133.131 288.493 132.304 288.959C131.477 289.439 130.477 289.679 129.304 289.679C127.731 289.679 126.437 289.313 125.424 288.579C124.424 287.846 123.857 286.846 123.724 285.579H126.504C126.651 286.086 126.964 286.486 127.444 286.779C127.937 287.086 128.531 287.239 129.224 287.239C130.037 287.239 130.697 286.993 131.204 286.499C131.711 286.019 131.964 285.286 131.964 284.299V282.579C131.604 283.099 131.104 283.533 130.464 283.879C129.837 284.226 129.117 284.399 128.304 284.399C127.371 284.399 126.517 284.159 125.744 283.679C124.971 283.199 124.357 282.526 123.904 281.659C123.464 280.779 123.244 279.773 123.244 278.639C123.244 277.519 123.464 276.526 123.904 275.659C124.357 274.793 124.964 274.126 125.724 273.659C126.497 273.193 127.357 272.959 128.304 272.959ZM131.964 278.679C131.964 277.999 131.831 277.419 131.564 276.939C131.297 276.446 130.937 276.073 130.484 275.819C130.031 275.553 129.544 275.419 129.024 275.419C128.504 275.419 128.024 275.546 127.584 275.799C127.144 276.053 126.784 276.426 126.504 276.919C126.237 277.399 126.104 277.973 126.104 278.639C126.104 279.306 126.237 279.893 126.504 280.399C126.784 280.893 127.144 281.273 127.584 281.539C128.037 281.806 128.517 281.939 129.024 281.939C129.544 281.939 130.031 281.813 130.484 281.559C130.937 281.293 131.297 280.919 131.564 280.439C131.831 279.946 131.964 279.359 131.964 278.679ZM147.979 273.139V284.219H145.159V282.819C144.799 283.299 144.325 283.679 143.739 283.959C143.165 284.226 142.539 284.359 141.859 284.359C140.992 284.359 140.225 284.179 139.559 283.819C138.892 283.446 138.365 282.906 137.979 282.199C137.605 281.479 137.419 280.626 137.419 279.639V273.139H140.219V279.239C140.219 280.119 140.439 280.799 140.879 281.279C141.319 281.746 141.919 281.979 142.679 281.979C143.452 281.979 144.059 281.746 144.499 281.279C144.939 280.799 145.159 280.119 145.159 279.239V273.139H147.979ZM150.021 278.639C150.021 277.519 150.241 276.526 150.681 275.659C151.135 274.793 151.741 274.126 152.501 273.659C153.275 273.193 154.135 272.959 155.081 272.959C155.908 272.959 156.628 273.126 157.241 273.459C157.868 273.793 158.368 274.213 158.741 274.719V273.139H161.561V284.219H158.741V282.599C158.381 283.119 157.881 283.553 157.241 283.899C156.615 284.233 155.888 284.399 155.061 284.399C154.128 284.399 153.275 284.159 152.501 283.679C151.741 283.199 151.135 282.526 150.681 281.659C150.241 280.779 150.021 279.773 150.021 278.639ZM158.741 278.679C158.741 277.999 158.608 277.419 158.341 276.939C158.075 276.446 157.715 276.073 157.261 275.819C156.808 275.553 156.321 275.419 155.801 275.419C155.281 275.419 154.801 275.546 154.361 275.799C153.921 276.053 153.561 276.426 153.281 276.919C153.015 277.399 152.881 277.973 152.881 278.639C152.881 279.306 153.015 279.893 153.281 280.399C153.561 280.893 153.921 281.273 154.361 281.539C154.815 281.806 155.295 281.939 155.801 281.939C156.321 281.939 156.808 281.813 157.261 281.559C157.715 281.293 158.075 280.919 158.341 280.439C158.608 279.946 158.741 279.359 158.741 278.679Z" fill="#1F2128"/>
    <path d="M82.412 299.099V310.219H80.588V302.603L77.196 310.219H75.932L72.524 302.603V310.219H70.7V299.099H72.668L76.572 307.819L80.46 299.099H82.412ZM93.3694 305.595C93.3694 305.926 93.348 306.225 93.3054 306.491H86.5694C86.6227 307.195 86.884 307.761 87.3534 308.187C87.8227 308.614 88.3987 308.827 89.0814 308.827C90.0627 308.827 90.756 308.417 91.1614 307.595H93.1294C92.8627 308.406 92.3774 309.073 91.6734 309.595C90.98 310.107 90.116 310.363 89.0814 310.363C88.2387 310.363 87.4814 310.177 86.8094 309.803C86.148 309.419 85.6254 308.886 85.2414 308.203C84.868 307.51 84.6814 306.71 84.6814 305.803C84.6814 304.897 84.8627 304.102 85.2254 303.419C85.5987 302.726 86.116 302.193 86.7774 301.819C87.4494 301.446 88.2174 301.259 89.0814 301.259C89.9134 301.259 90.6547 301.441 91.3054 301.803C91.956 302.166 92.4627 302.678 92.8254 303.339C93.188 303.99 93.3694 304.742 93.3694 305.595ZM91.4654 305.019C91.4547 304.347 91.2147 303.809 90.7454 303.403C90.276 302.998 89.6947 302.795 89.0014 302.795C88.372 302.795 87.8334 302.998 87.3854 303.403C86.9374 303.798 86.6707 304.337 86.5854 305.019H91.4654ZM97.7724 302.891V307.771C97.7724 308.102 97.847 308.342 97.9964 308.491C98.1564 308.63 98.423 308.699 98.7964 308.699H99.9164V310.219H98.4764C97.655 310.219 97.0257 310.027 96.5884 309.643C96.151 309.259 95.9324 308.635 95.9324 307.771V302.891H94.8924V301.403H95.9324V299.211H97.7724V301.403H99.9164V302.891H97.7724ZM101.47 305.771C101.47 304.886 101.651 304.102 102.014 303.419C102.387 302.737 102.888 302.209 103.518 301.835C104.158 301.451 104.862 301.259 105.63 301.259C106.323 301.259 106.926 301.398 107.438 301.675C107.96 301.942 108.376 302.278 108.686 302.683V301.403H110.526V310.219H108.686V308.907C108.376 309.323 107.955 309.67 107.422 309.947C106.888 310.225 106.28 310.363 105.598 310.363C104.84 310.363 104.147 310.171 103.518 309.787C102.888 309.393 102.387 308.849 102.014 308.155C101.651 307.451 101.47 306.657 101.47 305.771ZM108.686 305.803C108.686 305.195 108.558 304.667 108.302 304.219C108.056 303.771 107.731 303.43 107.326 303.195C106.92 302.961 106.483 302.843 106.014 302.843C105.544 302.843 105.107 302.961 104.702 303.195C104.296 303.419 103.966 303.755 103.71 304.203C103.464 304.641 103.342 305.163 103.342 305.771C103.342 306.379 103.464 306.913 103.71 307.371C103.966 307.83 104.296 308.182 104.702 308.427C105.118 308.662 105.555 308.779 106.014 308.779C106.483 308.779 106.92 308.662 107.326 308.427C107.731 308.193 108.056 307.851 108.302 307.403C108.558 306.945 108.686 306.411 108.686 305.803ZM114.137 310.331C113.807 310.331 113.529 310.219 113.305 309.995C113.081 309.771 112.969 309.494 112.969 309.163C112.969 308.833 113.081 308.555 113.305 308.331C113.529 308.107 113.807 307.995 114.137 307.995C114.457 307.995 114.729 308.107 114.953 308.331C115.177 308.555 115.289 308.833 115.289 309.163C115.289 309.494 115.177 309.771 114.953 309.995C114.729 310.219 114.457 310.331 114.137 310.331ZM114.137 303.611C113.807 303.611 113.529 303.499 113.305 303.275C113.081 303.051 112.969 302.774 112.969 302.443C112.969 302.113 113.081 301.835 113.305 301.611C113.529 301.387 113.807 301.275 114.137 301.275C114.457 301.275 114.729 301.387 114.953 301.611C115.177 301.835 115.289 302.113 115.289 302.443C115.289 302.774 115.177 303.051 114.953 303.275C114.729 303.499 114.457 303.611 114.137 303.611ZM122.167 301.435C122.231 300.443 122.61 299.67 123.303 299.115C124.007 298.561 124.903 298.283 125.991 298.283C126.738 298.283 127.383 298.417 127.927 298.683C128.471 298.95 128.882 299.313 129.159 299.771C129.437 300.23 129.575 300.747 129.575 301.323C129.575 301.985 129.399 302.55 129.047 303.019C128.695 303.489 128.274 303.803 127.783 303.963V304.027C128.413 304.219 128.903 304.571 129.255 305.083C129.607 305.585 129.783 306.23 129.783 307.019C129.783 307.649 129.639 308.209 129.351 308.699C129.063 309.19 128.637 309.579 128.071 309.867C127.506 310.145 126.829 310.283 126.039 310.283C124.887 310.283 123.938 309.99 123.191 309.403C122.455 308.806 122.061 307.953 122.007 306.843H123.767C123.81 307.409 124.029 307.873 124.423 308.235C124.818 308.587 125.351 308.763 126.023 308.763C126.674 308.763 127.175 308.587 127.527 308.235C127.879 307.873 128.055 307.409 128.055 306.843C128.055 306.097 127.815 305.569 127.335 305.259C126.866 304.939 126.141 304.779 125.159 304.779H124.743V303.275H125.175C126.039 303.265 126.695 303.121 127.143 302.843C127.602 302.566 127.831 302.129 127.831 301.531C127.831 301.019 127.666 300.614 127.335 300.315C127.005 300.006 126.535 299.851 125.927 299.851C125.33 299.851 124.866 300.006 124.535 300.315C124.205 300.614 124.007 300.987 123.943 301.435H122.167ZM134.243 308.747H138.003V310.219H132.419V299.099H134.243V308.747Z" fill="#1F2128"/>
    </svg>
    