<svg width="196" height="145" viewBox="0 0 196 145" fill="none" xmlns="http://www.w3.org/2000/svg">
    <path d="M81.3013 6.03075L84.9586 56.0207H110.974L114.947 5.99445L81.3013 6.03075Z"
        fill="#C6E7FF" />
    <path d="M110.706 54.9614L85.1243 55.2463L83.2766 27.4543H112.764L110.706 54.9614Z"
        fill="#55ACEE" />
    <path
        d="M108.72 62.0292H87.2803C84.173 62.0292 81.9913 59.9364 81.5902 56.5641L78.0055 6.25827C77.922 5.08394 78.8059 4.06388 79.982 3.98039C81.1782 3.89872 82.1764 4.78264 82.2599 5.95516L85.8338 56.1593C86.028 57.7638 86.8738 57.7638 87.2803 57.7638H108.72C109.656 57.7638 110.005 57.7638 110.172 56.0994L113.74 5.95516C113.824 4.78264 114.829 3.90235 116.018 3.98039C117.192 4.06388 118.078 5.08394 117.995 6.25827L114.421 56.4606C113.963 61.0726 111.068 62.0292 108.72 62.0292Z"
        fill="#2B5677" />
    <path
        d="M97.9993 58.0814H93.2312C83.1904 58.0814 82.0378 53.2098 81.506 46.3308C80.9107 38.6514 78.3242 6.22921 78.3242 6.22921L81.9416 5.94061C81.9416 5.94061 84.5317 38.3718 85.1252 46.0513C85.6062 52.2933 86.1344 54.4513 93.2312 54.4513H97.9993C99.0012 54.4513 99.8144 55.2627 99.8144 56.2664C99.8144 57.2701 99.0012 58.0814 97.9993 58.0814Z"
        fill="#2B5677" />
    <path
        d="M102.767 58.0814H97.9991C96.9972 58.0814 96.1841 57.2701 96.1841 56.2664C96.1841 55.2627 96.9972 54.4513 97.9991 54.4513H102.767C109.864 54.4513 110.39 52.2933 110.873 46.0513C111.469 38.37 114.057 5.94061 114.057 5.94061L117.676 6.22921C117.676 6.22921 115.088 38.6532 114.492 46.3308C113.961 53.2098 112.81 58.0814 102.767 58.0814Z"
        fill="#2B5677" />
    <path
        d="M117.965 5.59579C117.965 8.68681 113.01 11.1916 97.9992 11.1916C82.9906 11.1916 78.0337 8.68681 78.0337 5.59579C78.0337 2.50476 82.9888 0 97.9992 0C113.01 0 117.965 2.50476 117.965 5.59579Z"
        fill="#55ACEE" />
    <path
        d="M117.116 5.67743C116.559 4.84433 115.433 4.61926 114.599 5.17648C110.812 7.70484 101.396 8.02792 98.0871 7.9408C98.0689 7.93898 98.0526 7.94987 98.0344 7.94806C98.0181 7.94806 98.0054 7.9408 97.9891 7.9408C94.6875 8.02973 85.2692 7.71029 81.4776 5.17648C80.6427 4.62108 79.5173 4.84433 78.9601 5.67743C78.4029 6.51054 78.628 7.63768 79.4611 8.1949C84.1257 11.3113 93.8308 11.5818 97.0452 11.5818C97.5698 11.5818 97.911 11.5745 98.0381 11.5709C98.1669 11.5745 98.5063 11.5818 99.0309 11.5818C102.245 11.5818 111.95 11.3132 116.615 8.1949C117.45 7.63768 117.675 6.51054 117.116 5.67743Z"
        fill="#88C9F9" />
    <path
        d="M97.9827 29.9918C105.829 29.9918 112.189 28.8021 112.189 27.3346C112.189 25.867 105.829 24.6774 97.9827 24.6774C90.1368 24.6774 83.7764 25.867 83.7764 27.3346C83.7764 28.8021 90.1368 29.9918 97.9827 29.9918Z"
        fill="#88C9F9" />
    <path d="M85.3699 55.4351H111.084V58.7621H85.3699V55.4351Z" fill="#2B5677" />
    <path
        d="M5.42975 106.365H10.9497V109.029H2.06975V92.2772H5.42975V106.365ZM26.1654 102.093C26.1654 102.573 26.1334 103.005 26.0694 103.389H16.3494C16.4294 104.349 16.7654 105.101 17.3574 105.645C17.9494 106.189 18.6774 106.461 19.5414 106.461C20.7894 106.461 21.6774 105.925 22.2054 104.853H25.8294C25.4454 106.133 24.7094 107.189 23.6214 108.021C22.5334 108.837 21.1974 109.245 19.6134 109.245C18.3334 109.245 17.1814 108.965 16.1574 108.405C15.1494 107.829 14.3574 107.021 13.7814 105.981C13.2214 104.941 12.9414 103.741 12.9414 102.381C12.9414 101.005 13.2214 99.7972 13.7814 98.7572C14.3414 97.7172 15.1254 96.9172 16.1334 96.3572C17.1414 95.7972 18.3014 95.5172 19.6134 95.5172C20.8774 95.5172 22.0054 95.7892 22.9974 96.3332C24.0054 96.8772 24.7814 97.6532 25.3254 98.6612C25.8854 99.6532 26.1654 100.797 26.1654 102.093ZM22.6854 101.133C22.6694 100.269 22.3574 99.5812 21.7494 99.0692C21.1414 98.5412 20.3974 98.2772 19.5174 98.2772C18.6854 98.2772 17.9814 98.5332 17.4054 99.0452C16.8454 99.5412 16.5014 100.237 16.3734 101.133H22.6854ZM45.8499 95.5412C47.4819 95.5412 48.7939 96.0452 49.7859 97.0532C50.7939 98.0452 51.2979 99.4372 51.2979 101.229V109.029H47.9379V101.685C47.9379 100.645 47.6739 99.8532 47.1459 99.3092C46.6179 98.7492 45.8979 98.4692 44.9859 98.4692C44.0739 98.4692 43.3459 98.7492 42.8019 99.3092C42.2739 99.8532 42.0099 100.645 42.0099 101.685V109.029H38.6499V101.685C38.6499 100.645 38.3859 99.8532 37.8579 99.3092C37.3299 98.7492 36.6099 98.4692 35.6979 98.4692C34.7699 98.4692 34.0339 98.7492 33.4899 99.3092C32.9619 99.8532 32.6979 100.645 32.6979 101.685V109.029H29.3379V95.7332H32.6979V97.3412C33.1299 96.7812 33.6819 96.3412 34.3539 96.0212C35.0419 95.7012 35.7939 95.5412 36.6099 95.5412C37.6499 95.5412 38.5779 95.7652 39.3939 96.2132C40.2099 96.6452 40.8419 97.2692 41.2899 98.0852C41.7219 97.3172 42.3459 96.7012 43.1619 96.2372C43.9939 95.7732 44.8899 95.5412 45.8499 95.5412ZM58.5663 97.6772C58.9983 97.0372 59.5903 96.5172 60.3423 96.1172C61.1103 95.7172 61.9823 95.5172 62.9583 95.5172C64.0943 95.5172 65.1183 95.7972 66.0303 96.3572C66.9583 96.9172 67.6863 97.7172 68.2143 98.7572C68.7583 99.7812 69.0303 100.973 69.0303 102.333C69.0303 103.693 68.7583 104.901 68.2143 105.957C67.6863 106.997 66.9583 107.805 66.0303 108.381C65.1183 108.957 64.0943 109.245 62.9583 109.245C61.9663 109.245 61.0943 109.053 60.3423 108.669C59.6063 108.269 59.0143 107.757 58.5663 107.133V109.029H55.2063V91.2692H58.5663V97.6772ZM65.5983 102.333C65.5983 101.533 65.4303 100.845 65.0943 100.269C64.7743 99.6772 64.3423 99.2292 63.7983 98.9252C63.2703 98.6212 62.6943 98.4692 62.0703 98.4692C61.4623 98.4692 60.8863 98.6292 60.3423 98.9492C59.8143 99.2532 59.3823 99.7012 59.0463 100.293C58.7263 100.885 58.5663 101.581 58.5663 102.381C58.5663 103.181 58.7263 103.877 59.0463 104.469C59.3823 105.061 59.8143 105.517 60.3423 105.837C60.8863 106.141 61.4623 106.293 62.0703 106.293C62.6943 106.293 63.2703 106.133 63.7983 105.813C64.3423 105.493 64.7743 105.037 65.0943 104.445C65.4303 103.853 65.5983 103.149 65.5983 102.333ZM75.5519 97.7972C75.9839 97.0932 76.5439 96.5412 77.2319 96.1412C77.9359 95.7412 78.7359 95.5412 79.6319 95.5412V99.0692H78.7439C77.6879 99.0692 76.8879 99.3172 76.3439 99.8132C75.8159 100.309 75.5519 101.173 75.5519 102.405V109.029H72.1919V95.7332H75.5519V97.7972ZM94.9751 102.093C94.9751 102.573 94.9431 103.005 94.8791 103.389H85.1591C85.2391 104.349 85.5751 105.101 86.1671 105.645C86.7591 106.189 87.4871 106.461 88.3511 106.461C89.5991 106.461 90.4871 105.925 91.0151 104.853H94.6391C94.2551 106.133 93.5191 107.189 92.4311 108.021C91.3431 108.837 90.0071 109.245 88.4231 109.245C87.1431 109.245 85.9911 108.965 84.9671 108.405C83.9591 107.829 83.1671 107.021 82.5911 105.981C82.0311 104.941 81.7511 103.741 81.7511 102.381C81.7511 101.005 82.0311 99.7972 82.5911 98.7572C83.1511 97.7172 83.9351 96.9172 84.9431 96.3572C85.9511 95.7972 87.1111 95.5172 88.4231 95.5172C89.6871 95.5172 90.8151 95.7892 91.8071 96.3332C92.8151 96.8772 93.5911 97.6532 94.1351 98.6612C94.6951 99.6532 94.9751 100.797 94.9751 102.093ZM91.4951 101.133C91.4791 100.269 91.1671 99.5812 90.5591 99.0692C89.9511 98.5412 89.2071 98.2772 88.3271 98.2772C87.4951 98.2772 86.7911 98.5332 86.2151 99.0452C85.6551 99.5412 85.3111 100.237 85.1831 101.133H91.4951ZM102.06 98.4932V104.925C102.06 105.373 102.164 105.701 102.372 105.909C102.596 106.101 102.964 106.197 103.476 106.197H105.036V109.029H102.924C100.092 109.029 98.6756 107.653 98.6756 104.901V98.4932H97.0916V95.7332H98.6756V92.4452H102.06V95.7332H105.036V98.4932H102.06ZM120.532 102.093C120.532 102.573 120.5 103.005 120.436 103.389H110.716C110.796 104.349 111.132 105.101 111.724 105.645C112.316 106.189 113.044 106.461 113.908 106.461C115.156 106.461 116.044 105.925 116.572 104.853H120.196C119.812 106.133 119.076 107.189 117.988 108.021C116.9 108.837 115.564 109.245 113.98 109.245C112.7 109.245 111.548 108.965 110.524 108.405C109.516 107.829 108.724 107.021 108.148 105.981C107.588 104.941 107.308 103.741 107.308 102.381C107.308 101.005 107.588 99.7972 108.148 98.7572C108.708 97.7172 109.492 96.9172 110.5 96.3572C111.508 95.7972 112.668 95.5172 113.98 95.5172C115.244 95.5172 116.372 95.7892 117.364 96.3332C118.372 96.8772 119.148 97.6532 119.692 98.6612C120.252 99.6532 120.532 100.797 120.532 102.093ZM117.052 101.133C117.036 100.269 116.724 99.5812 116.116 99.0692C115.508 98.5412 114.764 98.2772 113.884 98.2772C113.052 98.2772 112.348 98.5332 111.772 99.0452C111.212 99.5412 110.868 100.237 110.74 101.133H117.052ZM133.503 97.6532C133.935 97.0452 134.527 96.5412 135.279 96.1412C136.047 95.7252 136.919 95.5172 137.895 95.5172C139.031 95.5172 140.055 95.7972 140.967 96.3572C141.895 96.9172 142.623 97.7172 143.151 98.7572C143.695 99.7812 143.967 100.973 143.967 102.333C143.967 103.693 143.695 104.901 143.151 105.957C142.623 106.997 141.895 107.805 140.967 108.381C140.055 108.957 139.031 109.245 137.895 109.245C136.919 109.245 136.055 109.045 135.303 108.645C134.567 108.245 133.967 107.741 133.503 107.133V115.365H130.143V95.7332H133.503V97.6532ZM140.535 102.333C140.535 101.533 140.367 100.845 140.031 100.269C139.711 99.6772 139.279 99.2292 138.735 98.9252C138.207 98.6212 137.631 98.4692 137.007 98.4692C136.399 98.4692 135.823 98.6292 135.279 98.9492C134.751 99.2532 134.319 99.7012 133.983 100.293C133.663 100.885 133.503 101.581 133.503 102.381C133.503 103.181 133.663 103.877 133.983 104.469C134.319 105.061 134.751 105.517 135.279 105.837C135.823 106.141 136.399 106.293 137.007 106.293C137.631 106.293 138.207 106.133 138.735 105.813C139.279 105.493 139.711 105.037 140.031 104.445C140.367 103.853 140.535 103.149 140.535 102.333ZM146.265 102.333C146.265 100.989 146.529 99.7972 147.057 98.7572C147.601 97.7172 148.329 96.9172 149.241 96.3572C150.169 95.7972 151.201 95.5172 152.337 95.5172C153.329 95.5172 154.193 95.7172 154.929 96.1172C155.681 96.5172 156.281 97.0212 156.729 97.6292V95.7332H160.113V109.029H156.729V107.085C156.297 107.709 155.697 108.229 154.929 108.645C154.177 109.045 153.305 109.245 152.313 109.245C151.193 109.245 150.169 108.957 149.241 108.381C148.329 107.805 147.601 106.997 147.057 105.957C146.529 104.901 146.265 103.693 146.265 102.333ZM156.729 102.381C156.729 101.565 156.569 100.869 156.249 100.293C155.929 99.7012 155.497 99.2532 154.953 98.9492C154.409 98.6292 153.825 98.4692 153.201 98.4692C152.577 98.4692 152.001 98.6212 151.473 98.9252C150.945 99.2292 150.513 99.6772 150.177 100.269C149.857 100.845 149.697 101.533 149.697 102.333C149.697 103.133 149.857 103.837 150.177 104.445C150.513 105.037 150.945 105.493 151.473 105.813C152.017 106.133 152.593 106.293 153.201 106.293C153.825 106.293 154.409 106.141 154.953 105.837C155.497 105.517 155.929 105.069 156.249 104.493C156.569 103.901 156.729 103.197 156.729 102.381ZM167.475 97.7972C167.907 97.0932 168.467 96.5412 169.155 96.1412C169.859 95.7412 170.659 95.5412 171.555 95.5412V99.0692H170.667C169.611 99.0692 168.811 99.3172 168.267 99.8132C167.739 100.309 167.475 101.173 167.475 102.405V109.029H164.115V95.7332H167.475V97.7972ZM173.674 102.333C173.674 100.989 173.938 99.7972 174.466 98.7572C175.01 97.7172 175.738 96.9172 176.65 96.3572C177.578 95.7972 178.61 95.5172 179.746 95.5172C180.738 95.5172 181.602 95.7172 182.338 96.1172C183.09 96.5172 183.69 97.0212 184.138 97.6292V95.7332H187.522V109.029H184.138V107.085C183.706 107.709 183.106 108.229 182.338 108.645C181.586 109.045 180.714 109.245 179.722 109.245C178.602 109.245 177.578 108.957 176.65 108.381C175.738 107.805 175.01 106.997 174.466 105.957C173.938 104.901 173.674 103.693 173.674 102.333ZM184.138 102.381C184.138 101.565 183.978 100.869 183.658 100.293C183.338 99.7012 182.906 99.2532 182.362 98.9492C181.818 98.6292 181.234 98.4692 180.61 98.4692C179.986 98.4692 179.41 98.6212 178.882 98.9252C178.354 99.2292 177.922 99.6772 177.586 100.269C177.266 100.845 177.106 101.533 177.106 102.333C177.106 103.133 177.266 103.837 177.586 104.445C177.922 105.037 178.354 105.493 178.882 105.813C179.426 106.133 180.002 106.293 180.61 106.293C181.234 106.293 181.818 106.141 182.362 105.837C182.906 105.517 183.338 105.069 183.658 104.493C183.978 103.901 184.138 103.197 184.138 102.381ZM24.0527 126.677C24.4847 126.037 25.0767 125.517 25.8287 125.117C26.5967 124.717 27.4687 124.517 28.4447 124.517C29.5807 124.517 30.6047 124.797 31.5167 125.357C32.4447 125.917 33.1727 126.717 33.7007 127.757C34.2447 128.781 34.5167 129.973 34.5167 131.333C34.5167 132.693 34.2447 133.901 33.7007 134.957C33.1727 135.997 32.4447 136.805 31.5167 137.381C30.6047 137.957 29.5807 138.245 28.4447 138.245C27.4527 138.245 26.5807 138.053 25.8287 137.669C25.0927 137.269 24.5007 136.757 24.0527 136.133V138.029H20.6927V120.269H24.0527V126.677ZM31.0847 131.333C31.0847 130.533 30.9167 129.845 30.5807 129.269C30.2607 128.677 29.8287 128.229 29.2847 127.925C28.7567 127.621 28.1807 127.469 27.5567 127.469C26.9487 127.469 26.3727 127.629 25.8287 127.949C25.3007 128.253 24.8687 128.701 24.5327 129.293C24.2127 129.885 24.0527 130.581 24.0527 131.381C24.0527 132.181 24.2127 132.877 24.5327 133.469C24.8687 134.061 25.3007 134.517 25.8287 134.837C26.3727 135.141 26.9487 135.293 27.5567 135.293C28.1807 135.293 28.7567 135.133 29.2847 134.813C29.8287 134.493 30.2607 134.037 30.5807 133.445C30.9167 132.853 31.0847 132.149 31.0847 131.333ZM50.0383 131.093C50.0383 131.573 50.0063 132.005 49.9423 132.389H40.2223C40.3023 133.349 40.6383 134.101 41.2303 134.645C41.8223 135.189 42.5503 135.461 43.4143 135.461C44.6623 135.461 45.5503 134.925 46.0783 133.853H49.7023C49.3183 135.133 48.5823 136.189 47.4943 137.021C46.4063 137.837 45.0703 138.245 43.4863 138.245C42.2063 138.245 41.0543 137.965 40.0303 137.405C39.0223 136.829 38.2303 136.021 37.6543 134.981C37.0943 133.941 36.8143 132.741 36.8143 131.381C36.8143 130.005 37.0943 128.797 37.6543 127.757C38.2143 126.717 38.9983 125.917 40.0063 125.357C41.0143 124.797 42.1743 124.517 43.4863 124.517C44.7503 124.517 45.8783 124.789 46.8703 125.333C47.8783 125.877 48.6543 126.653 49.1983 127.661C49.7583 128.653 50.0383 129.797 50.0383 131.093ZM46.5583 130.133C46.5423 129.269 46.2303 128.581 45.6223 128.069C45.0143 127.541 44.2703 127.277 43.3903 127.277C42.5583 127.277 41.8543 127.533 41.2783 128.045C40.7183 128.541 40.3743 129.237 40.2463 130.133H46.5583ZM56.5708 126.677C57.0028 126.037 57.5948 125.517 58.3468 125.117C59.1148 124.717 59.9868 124.517 60.9628 124.517C62.0988 124.517 63.1228 124.797 64.0348 125.357C64.9628 125.917 65.6908 126.717 66.2188 127.757C66.7628 128.781 67.0348 129.973 67.0348 131.333C67.0348 132.693 66.7628 133.901 66.2188 134.957C65.6908 135.997 64.9628 136.805 64.0348 137.381C63.1228 137.957 62.0988 138.245 60.9628 138.245C59.9708 138.245 59.0988 138.053 58.3468 137.669C57.6108 137.269 57.0188 136.757 56.5708 136.133V138.029H53.2108V120.269H56.5708V126.677ZM63.6028 131.333C63.6028 130.533 63.4348 129.845 63.0988 129.269C62.7788 128.677 62.3468 128.229 61.8028 127.925C61.2748 127.621 60.6988 127.469 60.0748 127.469C59.4668 127.469 58.8908 127.629 58.3468 127.949C57.8188 128.253 57.3868 128.701 57.0508 129.293C56.7308 129.885 56.5708 130.581 56.5708 131.381C56.5708 132.181 56.7308 132.877 57.0508 133.469C57.3868 134.061 57.8188 134.517 58.3468 134.837C58.8908 135.141 59.4668 135.293 60.0748 135.293C60.6988 135.293 61.2748 135.133 61.8028 134.813C62.3468 134.493 62.7788 134.037 63.0988 133.445C63.4348 132.853 63.6028 132.149 63.6028 131.333ZM82.5565 131.093C82.5565 131.573 82.5245 132.005 82.4605 132.389H72.7405C72.8205 133.349 73.1565 134.101 73.7485 134.645C74.3405 135.189 75.0685 135.461 75.9325 135.461C77.1805 135.461 78.0685 134.925 78.5965 133.853H82.2205C81.8365 135.133 81.1005 136.189 80.0125 137.021C78.9245 137.837 77.5885 138.245 76.0045 138.245C74.7245 138.245 73.5725 137.965 72.5485 137.405C71.5405 136.829 70.7485 136.021 70.1725 134.981C69.6125 133.941 69.3325 132.741 69.3325 131.381C69.3325 130.005 69.6125 128.797 70.1725 127.757C70.7325 126.717 71.5165 125.917 72.5245 125.357C73.5325 124.797 74.6925 124.517 76.0045 124.517C77.2685 124.517 78.3965 124.789 79.3885 125.333C80.3965 125.877 81.1725 126.653 81.7165 127.661C82.2765 128.653 82.5565 129.797 82.5565 131.093ZM79.0765 130.133C79.0605 129.269 78.7485 128.581 78.1405 128.069C77.5325 127.541 76.7885 127.277 75.9085 127.277C75.0765 127.277 74.3725 127.533 73.7965 128.045C73.2365 128.541 72.8925 129.237 72.7645 130.133H79.0765ZM89.089 126.797C89.521 126.093 90.081 125.541 90.769 125.141C91.473 124.741 92.273 124.541 93.169 124.541V128.069H92.281C91.225 128.069 90.425 128.317 89.881 128.813C89.353 129.309 89.089 130.173 89.089 131.405V138.029H85.729V124.733H89.089V126.797ZM101.727 131.333C101.727 129.989 101.991 128.797 102.519 127.757C103.063 126.717 103.791 125.917 104.703 125.357C105.631 124.797 106.663 124.517 107.799 124.517C108.791 124.517 109.655 124.717 110.391 125.117C111.143 125.517 111.743 126.021 112.191 126.629V124.733H115.575V138.029H112.191V136.085C111.759 136.709 111.159 137.229 110.391 137.645C109.639 138.045 108.767 138.245 107.775 138.245C106.655 138.245 105.631 137.957 104.703 137.381C103.791 136.805 103.063 135.997 102.519 134.957C101.991 133.901 101.727 132.693 101.727 131.333ZM112.191 131.381C112.191 130.565 112.031 129.869 111.711 129.293C111.391 128.701 110.959 128.253 110.415 127.949C109.871 127.629 109.287 127.469 108.663 127.469C108.039 127.469 107.463 127.621 106.935 127.925C106.407 128.229 105.975 128.677 105.639 129.269C105.319 129.845 105.159 130.533 105.159 131.333C105.159 132.133 105.319 132.837 105.639 133.445C105.975 134.037 106.407 134.493 106.935 134.813C107.479 135.133 108.055 135.293 108.663 135.293C109.287 135.293 109.871 135.141 110.415 134.837C110.959 134.517 111.391 134.069 111.711 133.493C112.031 132.901 112.191 132.197 112.191 131.381ZM111.735 121.277L106.215 123.797V121.397L111.735 118.541V121.277ZM124.784 124.517C125.776 124.517 126.648 124.717 127.4 125.117C128.152 125.501 128.744 126.005 129.176 126.629V124.733H132.56V138.125C132.56 139.357 132.312 140.453 131.816 141.413C131.32 142.389 130.576 143.157 129.584 143.717C128.592 144.293 127.392 144.581 125.984 144.581C124.096 144.581 122.544 144.141 121.328 143.261C120.128 142.381 119.448 141.181 119.288 139.661H122.624C122.8 140.269 123.176 140.749 123.752 141.101C124.344 141.469 125.056 141.653 125.888 141.653C126.864 141.653 127.656 141.357 128.264 140.765C128.872 140.189 129.176 139.309 129.176 138.125V136.061C128.744 136.685 128.144 137.205 127.376 137.621C126.624 138.037 125.76 138.245 124.784 138.245C123.664 138.245 122.64 137.957 121.712 137.381C120.784 136.805 120.048 135.997 119.504 134.957C118.976 133.901 118.712 132.693 118.712 131.333C118.712 129.989 118.976 128.797 119.504 127.757C120.048 126.717 120.776 125.917 121.688 125.357C122.616 124.797 123.648 124.517 124.784 124.517ZM129.176 131.381C129.176 130.565 129.016 129.869 128.696 129.293C128.376 128.701 127.944 128.253 127.4 127.949C126.856 127.629 126.272 127.469 125.648 127.469C125.024 127.469 124.448 127.621 123.92 127.925C123.392 128.229 122.96 128.677 122.624 129.269C122.304 129.845 122.144 130.533 122.144 131.333C122.144 132.133 122.304 132.837 122.624 133.445C122.96 134.037 123.392 134.493 123.92 134.813C124.464 135.133 125.04 135.293 125.648 135.293C126.272 135.293 126.856 135.141 127.4 134.837C127.944 134.517 128.376 134.069 128.696 133.493C129.016 132.901 129.176 132.197 129.176 131.381ZM149.114 124.733V138.029H145.73V136.349C145.298 136.925 144.73 137.381 144.026 137.717C143.338 138.037 142.586 138.197 141.77 138.197C140.73 138.197 139.81 137.981 139.01 137.549C138.21 137.101 137.578 136.453 137.114 135.605C136.666 134.741 136.442 133.717 136.442 132.533V124.733H139.802V132.053C139.802 133.109 140.066 133.925 140.594 134.501C141.122 135.061 141.842 135.341 142.754 135.341C143.682 135.341 144.41 135.061 144.938 134.501C145.466 133.925 145.73 133.109 145.73 132.053V124.733H149.114ZM152.285 131.333C152.285 129.989 152.549 128.797 153.077 127.757C153.621 126.717 154.349 125.917 155.261 125.357C156.189 124.797 157.221 124.517 158.357 124.517C159.349 124.517 160.213 124.717 160.949 125.117C161.701 125.517 162.301 126.021 162.749 126.629V124.733H166.133V138.029H162.749V136.085C162.317 136.709 161.717 137.229 160.949 137.645C160.197 138.045 159.325 138.245 158.333 138.245C157.213 138.245 156.189 137.957 155.261 137.381C154.349 136.805 153.621 135.997 153.077 134.957C152.549 133.901 152.285 132.693 152.285 131.333ZM162.749 131.381C162.749 130.565 162.589 129.869 162.269 129.293C161.949 128.701 161.517 128.253 160.973 127.949C160.429 127.629 159.845 127.469 159.221 127.469C158.597 127.469 158.021 127.621 157.493 127.925C156.965 128.229 156.533 128.677 156.197 129.269C155.877 129.845 155.717 130.533 155.717 131.333C155.717 132.133 155.877 132.837 156.197 133.445C156.533 134.037 156.965 134.493 157.493 134.813C158.037 135.133 158.613 135.293 159.221 135.293C159.845 135.293 160.429 135.141 160.973 134.837C161.517 134.517 161.949 134.069 162.269 133.493C162.589 132.901 162.749 132.197 162.749 131.381ZM174.479 120.989L174.095 132.581H171.263L170.855 120.989H174.479ZM172.751 138.197C172.143 138.197 171.639 138.013 171.239 137.645C170.855 137.261 170.663 136.789 170.663 136.229C170.663 135.669 170.855 135.205 171.239 134.837C171.639 134.453 172.143 134.261 172.751 134.261C173.343 134.261 173.831 134.453 174.215 134.837C174.599 135.205 174.791 135.669 174.791 136.229C174.791 136.789 174.599 137.261 174.215 137.645C173.831 138.013 173.343 138.197 172.751 138.197Z"
        fill="#7FC4ED" />
</svg>
    